<?xml version="1.0" encoding="UTF-8"?>
<svg xmlns="http://www.w3.org/2000/svg" xmlns:xlink="http://www.w3.org/1999/xlink" viewBox="0 0 16 16" width="16px" height="16px">
<g id="surface1308540">
<path style="fill-rule:nonzero;fill:rgb(0%,0%,0%);fill-opacity:1;stroke-width:1;stroke-linecap:butt;stroke-linejoin:miter;stroke:rgb(100%,100%,100%);stroke-opacity:1;stroke-miterlimit:10;" d="M 38.496092 19.999999 C 38.496092 30.214842 30.214842 38.496092 19.999999 38.496092 C 9.785156 38.496092 1.503906 30.214842 1.503906 19.999999 C 1.503906 9.785156 9.785156 1.503906 19.999999 1.503906 C 30.214842 1.503906 38.496092 9.785156 38.496092 19.999999 Z M 38.496092 19.999999 " transform="matrix(0.4,0,0,0.4,0,0)"/>
<path style=" stroke:none;fill-rule:nonzero;fill:rgb(100%,100%,100%);fill-opacity:1;" d="M 12.800781 5.046875 C 12.445312 5.203125 12 5.351562 11.601562 5.398438 C 12.007812 5.160156 12.652344 4.65625 12.800781 4.199219 C 12.417969 4.421875 11.730469 4.664062 11.28125 4.75 C 10.925781 4.367188 10.414062 4.199219 9.847656 4.199219 C 8.757812 4.199219 8 5.121094 8 6.199219 L 8 7 C 6.398438 7 4.839844 5.78125 3.871094 4.601562 C 3.699219 4.886719 3.601562 5.226562 3.601562 5.582031 C 3.601562 6.308594 4.269531 7.046875 4.800781 7.398438 C 4.476562 7.390625 3.867188 7.144531 3.601562 7 C 3.601562 7.007812 3.601562 7.015625 3.601562 7.023438 C 3.601562 7.96875 4.265625 8.613281 5.164062 8.792969 C 5 8.835938 4.800781 9 4.027344 9 C 4.277344 9.773438 5.539062 10.183594 6.398438 10.199219 C 5.726562 10.722656 4.523438 11 3.601562 11 C 3.441406 11 3.355469 11.007812 3.199219 10.992188 C 4.070312 11.542969 5.289062 11.800781 6.398438 11.800781 C 10.023438 11.800781 12 9.03125 12 6.453125 C 12 6.367188 11.996094 6.082031 11.992188 6 C 12.378906 5.726562 12.535156 5.441406 12.800781 5.046875 "/>
</g>
</svg>
