<?xml version="1.0" encoding="UTF-8"?>
<svg xmlns="http://www.w3.org/2000/svg" xmlns:xlink="http://www.w3.org/1999/xlink" viewBox="0 0 16 16" width="16px" height="16px">
<g id="surface1305634">
<path style=" stroke:none;fill-rule:nonzero;fill:rgb(0%,0%,0%);fill-opacity:1;" d="M 8 0.398438 C 3.804688 0.398438 0.398438 3.804688 0.398438 8 C 0.398438 12.195312 3.804688 15.601562 8 15.601562 C 12.195312 15.601562 15.601562 12.195312 15.601562 8 C 15.601562 3.804688 12.195312 0.398438 8 0.398438 Z M 8 0.398438 "/>
<path style=" stroke:none;fill-rule:nonzero;fill:rgb(100%,100%,100%);fill-opacity:1;" d="M 8 0.800781 C 11.96875 0.800781 15.199219 4.03125 15.199219 8 C 15.199219 11.96875 11.96875 15.199219 8 15.199219 C 4.03125 15.199219 0.800781 11.96875 0.800781 8 C 0.800781 4.03125 4.03125 0.800781 8 0.800781 M 8 0.398438 C 3.804688 0.398438 0.398438 3.804688 0.398438 8 C 0.398438 12.195312 3.804688 15.601562 8 15.601562 C 12.195312 15.601562 15.601562 12.195312 15.601562 8 C 15.601562 3.804688 12.195312 0.398438 8 0.398438 Z M 8 0.398438 "/>
<path style=" stroke:none;fill-rule:nonzero;fill:rgb(100%,100%,100%);fill-opacity:1;" d="M 12.375 5.617188 C 12.394531 5.554688 12.402344 5.5 12.398438 5.449219 C 12.394531 5.304688 12.292969 5.199219 12.058594 5.199219 L 11.011719 5.199219 C 10.746094 5.199219 10.625 5.359375 10.554688 5.519531 C 10.554688 5.519531 9.902344 6.863281 9.148438 7.75 C 8.90625 8.007812 8.78125 8 8.648438 8 C 8.578125 8 8.398438 7.914062 8.398438 7.679688 L 8.398438 5.605469 C 8.398438 5.328125 8.332031 5.199219 8.105469 5.199219 L 6.246094 5.199219 C 6.085938 5.199219 6 5.328125 6 5.457031 C 6 5.722656 6.359375 5.789062 6.398438 6.535156 L 6.398438 7.984375 C 6.398438 8.335938 6.339844 8.398438 6.207031 8.398438 C 5.851562 8.398438 5.148438 7.199219 4.679688 5.628906 C 4.578125 5.316406 4.476562 5.199219 4.214844 5.199219 L 3.15625 5.199219 C 2.851562 5.199219 2.800781 5.347656 2.800781 5.507812 C 2.800781 5.796875 3.039062 7.355469 4.351562 9.148438 C 5.300781 10.449219 6.550781 11.199219 7.660156 11.199219 C 8.332031 11.199219 8.398438 11.027344 8.398438 10.761719 L 8.398438 9.574219 C 8.398438 9.253906 8.472656 9.199219 8.6875 9.199219 C 8.839844 9.199219 9.148438 9.300781 9.75 10 C 10.441406 10.808594 10.566406 11.199219 10.964844 11.199219 L 12.011719 11.199219 C 12.253906 11.199219 12.394531 11.097656 12.398438 10.898438 C 12.402344 10.847656 12.394531 10.792969 12.378906 10.730469 C 12.300781 10.5 11.945312 9.9375 11.5 9.398438 C 11.253906 9.101562 11.011719 8.808594 10.898438 8.648438 C 10.824219 8.542969 10.796875 8.46875 10.800781 8.398438 C 10.804688 8.324219 10.84375 8.253906 10.898438 8.15625 C 10.890625 8.15625 12.242188 6.257812 12.375 5.617188 Z M 12.375 5.617188 "/>
</g>
</svg>
